<svg width="32" height="32" viewBox="0 0 32 32" fill="none" xmlns="http://www.w3.org/2000/svg">
<path d="M31.9257 0H0.475098V32H31.9257V0Z" fill="white"/>
<g clip-path="url(#clip0_77_423)">
<path d="M16.7398 8.20312C13.5552 8.20312 10.4077 10.3406 10.4077 13.8C10.4077 16 11.6369 17.25 12.3818 17.25C12.6891 17.25 12.8661 16.3875 12.8661 16.1438C12.8661 15.8531 12.1304 15.2344 12.1304 14.025C12.1304 11.5125 14.0301 9.73125 16.4884 9.73125C18.6022 9.73125 20.1666 10.9406 20.1666 13.1625C20.1666 14.8219 19.5055 17.9344 17.3637 17.9344C16.5908 17.9344 15.9297 17.3719 15.9297 16.5656C15.9297 15.3844 16.7491 14.2406 16.7491 13.0219C16.7491 10.9531 13.8345 11.3281 13.8345 13.8281C13.8345 14.3531 13.8997 14.9344 14.1325 15.4125C13.7041 17.2688 12.8288 20.0344 12.8288 21.9469C12.8288 22.5375 12.9126 23.1188 12.9685 23.7094C13.074 23.8281 13.0213 23.8156 13.1827 23.7563C14.7471 21.6 14.6912 21.1781 15.3989 18.3562C15.7807 19.0875 16.7678 19.4812 17.55 19.4812C20.8464 19.4812 22.327 16.2469 22.327 13.3313C22.327 10.2281 19.6638 8.20312 16.7398 8.20312Z" fill="black"/>
</g>
<defs>
<clipPath id="clip0_77_423">
<rect width="11.9193" height="16" fill="white" transform="translate(10.4077 8)"/>
</clipPath>
</defs>
</svg>
